<svg xmlns="http://www.w3.org/2000/svg" width="102" height="102" viewBox="0 0 102 102" fill="none">
  <g clip-path="url(#clip0_system)">
    <!-- 系统架构图 -->
    <rect x="20" y="20" width="25" height="25" rx="3" stroke="black" stroke-width="2" fill="none"/>
    <rect x="57" y="20" width="25" height="25" rx="3" stroke="black" stroke-width="2" fill="none"/>
    <rect x="20" y="57" width="25" height="25" rx="3" stroke="black" stroke-width="2" fill="none"/>
    <rect x="57" y="57" width="25" height="25" rx="3" stroke="black" stroke-width="2" fill="none"/>
    
    <!-- 连接线 -->
    <path d="M45 32.5H57" stroke="black" stroke-width="2" stroke-linecap="round"/>
    <path d="M32.5 45V57" stroke="black" stroke-width="2" stroke-linecap="round"/>
    <path d="M69.5 45V57" stroke="black" stroke-width="2" stroke-linecap="round"/>
    <path d="M45 69.5H57" stroke="black" stroke-width="2" stroke-linecap="round"/>
    
    <!-- 中央处理器 -->
    <circle cx="51" cy="51" r="8" stroke="black" stroke-width="2" fill="none"/>
    <path d="M47 51H55M51 47V55" stroke="black" stroke-width="2" stroke-linecap="round"/>
    
    <!-- 数据流箭头 -->
    <path d="M40 51L35 51M67 51L72 51" stroke="black" stroke-width="2" stroke-linecap="round"/>
    <path d="M35 48L38 51L35 54" stroke="black" stroke-width="2" stroke-linecap="round" fill="none"/>
    <path d="M67 48L64 51L67 54" stroke="black" stroke-width="2" stroke-linecap="round" fill="none"/>
  </g>
  <defs>
    <clipPath id="clip0_system">
      <rect width="102" height="102" fill="white"/>
    </clipPath>
  </defs>
</svg>
