<svg xmlns="http://www.w3.org/2000/svg" width="102" height="102" viewBox="0 0 102 102" fill="none">
  <g clip-path="url(#clip0_uiux)">
    <!-- 手机框架 -->
    <rect x="30" y="15" width="42" height="72" rx="8" stroke="black" stroke-width="2" fill="none"/>
    
    <!-- 屏幕 -->
    <rect x="35" y="25" width="32" height="52" rx="3" stroke="black" stroke-width="1.5" fill="none"/>
    
    <!-- 界面元素 -->
    <!-- 顶部导航 -->
    <rect x="37" y="28" width="28" height="8" rx="2" stroke="black" stroke-width="1" fill="none"/>
    <circle cx="41" cy="32" r="1.5" fill="black"/>
    <circle cx="44" cy="32" r="1.5" fill="black"/>
    <circle cx="47" cy="32" r="1.5" fill="black"/>
    
    <!-- 内容区域 -->
    <rect x="37" y="38" width="28" height="12" rx="1" stroke="black" stroke-width="1" fill="none"/>
    <rect x="39" y="40" width="24" height="2" rx="1" fill="black"/>
    <rect x="39" y="44" width="20" height="1.5" rx="0.5" fill="black"/>
    <rect x="39" y="46.5" width="18" height="1.5" rx="0.5" fill="black"/>
    
    <!-- 按钮 -->
    <rect x="37" y="52" width="28" height="6" rx="3" stroke="black" stroke-width="1" fill="none"/>
    <circle cx="40" cy="55" r="1" fill="black"/>
    <path d="M43 54L45 56L47 54" stroke="black" stroke-width="1" stroke-linecap="round" fill="none"/>
    
    <!-- 设计工具图标 -->
    <circle cx="20" cy="20" r="6" stroke="black" stroke-width="2" fill="none"/>
    <path d="M16 20L24 20M20 16V24" stroke="black" stroke-width="2" stroke-linecap="round"/>
    
    <rect x="76" y="16" width="8" height="8" stroke="black" stroke-width="2" fill="none"/>
    <circle cx="80" cy="20" r="2" stroke="black" stroke-width="1.5" fill="none"/>
    
    <!-- 调色板 -->
    <path d="M85 75C85 70 85 65 80 65C75 65 75 70 75 75C75 80 80 80 80 75Z" stroke="black" stroke-width="2" fill="none"/>
    <circle cx="77" cy="68" r="2" fill="#FF6B6B"/>
    <circle cx="82" cy="68" r="2" fill="#4ECDC4"/>
    <circle cx="80" cy="72" r="2" fill="#45B7D1"/>
  </g>
  <defs>
    <clipPath id="clip0_uiux">
      <rect width="102" height="102" fill="white"/>
    </clipPath>
  </defs>
</svg>
