<svg xmlns="http://www.w3.org/2000/svg" width="100" height="100" viewBox="0 0 100 100" fill="none"><g clip-path="url(#clip0_3206_237)"><path d="M64.67 2.06V64.6C48.33 63.57 35.34 49.94 35.34 33.34H33.34V33.33H35.34C35.34 16.72 48.32 3.09 64.67 2.06ZM31.33 2.06V31.33H2.06C3.06 15.65 15.65 3.06 31.33 2.06ZM31.33 35.4V97.94C23.71 97.46 16.62 94.27 11.17 88.83C5.25 82.91 1.99 75.04 1.99 66.67C1.99 50.06 14.97 36.43 31.32 35.4M66.67 0C48.26 0 33.34 14.92 33.34 33.33V0C14.92 0 0 14.92 0 33.33H33.33C14.92 33.33 0 48.26 0 66.67C0 85.08 14.92 100 33.33 100V33.34C33.33 51.74 48.26 66.66 66.66 66.66V0H66.67Z" fill="white"></path><path d="M98 35.4001V64.6701H68.73C69.72 48.9801 82.31 36.3901 98 35.4001ZM66.67 68.6701C83.27 68.6701 96.9 81.6501 97.94 98.0001H66.67H35.4C35.88 90.3801 39.07 83.2901 44.51 77.8401C50.43 71.9201 58.3 68.6601 66.67 68.6601M100 33.3301C81.59 33.3301 66.67 48.2501 66.67 66.6601C48.26 66.6601 33.34 81.5801 33.34 99.9901H66.67H100C100 81.5801 85.08 66.6601 66.67 66.6601H100V33.3301Z" fill="white"></path><path d="M98 2V31.27C82.31 30.28 69.72 17.69 68.73 2H98ZM100 0H66.67C66.67 18.41 81.59 33.33 100 33.33V0Z" fill="white"></path></g><defs><clipPath id="clip0_3206_237"><rect width="100" height="100" fill="white"></rect></clipPath></defs></svg>