<svg xmlns="http://www.w3.org/2000/svg" width="102" height="102" viewBox="0 0 102 102" fill="none"><g clip-path="url(#clip0_3206_225)"><path d="M51 101.001C78.6142 101.001 101 91.7958 101 80.4409C101 69.0859 78.6142 59.8809 51 59.8809C23.3858 59.8809 1 69.0859 1 80.4409C1 91.7958 23.3858 101.001 51 101.001Z" stroke="black" stroke-width="2" stroke-miterlimit="10"></path><path d="M51 59.8898C78.6142 59.8898 101 53.089 101 44.6998C101 36.3106 78.6142 29.5098 51 29.5098C23.3858 29.5098 1 36.3106 1 44.6998C1 53.089 23.3858 59.8898 51 59.8898Z" stroke="black" stroke-width="2" stroke-miterlimit="10"></path><path d="M101 19.7006C101 25.1206 78.61 29.5106 51 29.5106C23.39 29.5106 1 25.1206 1 19.7006C1 14.2806 23.39 9.89062 51 9.89062C78.61 9.89062 101 14.2806 101 19.7006Z" stroke="black" stroke-width="2" stroke-miterlimit="10"></path><path d="M101 5.44C101 7.89 78.61 9.88 51 9.88C23.39 9.88 1 7.9 1 5.44C1 2.98 23.39 1 51 1C78.61 1 101 2.99 101 5.44Z" stroke="black" stroke-width="2" stroke-miterlimit="10"></path></g><defs><clipPath id="clip0_3206_225"><rect width="102" height="102" fill="white"></rect></clipPath></defs></svg>