<svg xmlns="http://www.w3.org/2000/svg" width="119" height="102" viewBox="0 0 119 102" fill="none"><g clip-path="url(#clip0_3017_63)"><path d="M0.0900269 6.95952C21.77 4.98952 36.54 4.16953 34.73 37.4495C32.68 75.0295 63.33 37.8295 75.78 45.0695C86.82 51.4895 99.31 73.4495 81.01 84.2995C43.74 106.39 8.76003 14.8995 72.31 1.22952C94.26 -3.49048 104.43 64.7795 60.64 78.3295C30.21 87.7495 -0.769973 68.8095 8.71003 42.4695C36.09 -33.6205 138.93 21.7095 94.86 83.9095C74.56 112.56 -7.50997 94.7895 12.86 51.7895C22.36 31.7395 45.6 25.2195 63.01 32.7295C94.99 52.3895 66.85 93.4795 31.31 100.99" stroke="black" stroke-width="2" stroke-miterlimit="10"></path><path d="M59.78 26.2108C80.7 53.4408 39.42 82.6408 24.04 60.3508C15.98 28.4708 48.89 12.3108 69.98 16.6908C89.38 23.7908 97.97 53.5908 118.29 58.8408" stroke="black" stroke-width="2" stroke-miterlimit="10"></path><path d="M7.55998 98.0692C6.42998 98.3392 5.23998 97.5692 4.67998 96.5492C4.11998 95.5292 4.03998 94.3192 4.01998 93.1492C3.79998 80.3292 8.92998 67.4992 17.94 58.3692C26.95 49.2392 39.71 43.9392 52.53 43.9892C55.68 43.9992 59.07 44.4292 61.39 46.5392C64.01 48.9192 64.57 52.7392 65.46 56.1592C65.91 57.8692 66.47 59.5492 67.15 61.1792C68.52 64.4792 73.18 64.6092 74.78 61.4092C77.25 56.4492 78.72 50.9692 79.29 45.4392C80 38.5592 79.37 31.5992 77.96 24.8092C77.55 22.8192 78.61 20.8792 80.46 20.0492C93.1 14.4092 99.59 15.3892 99.59 7.94922" stroke="black" stroke-width="2" stroke-miterlimit="10"></path></g><defs><clipPath id="clip0_3017_63"><rect width="118.54" height="101.98" fill="white"></rect></clipPath></defs></svg>