<svg xmlns="http://www.w3.org/2000/svg" width="122" height="102" viewBox="0 0 122 102" fill="none"><path d="M53.0872 85.7851C51.7984 77.4489 43.0523 75.9575 39.4094 71.5265C30.268 60.4058 36.3508 44.6299 51.0682 38.8627C70.5968 31.1989 91.689 43.9575 86.2849 65.3971C83.9223 74.7765 70.9404 77.3713 67.8217 86.8109C67.8217 86.8109 64.8061 88.5178 58.0961 87.3799C54.5134 86.7678 53.0872 85.7937 53.0872 85.7937V85.7851Z" stroke="black" stroke-width="2" stroke-linecap="round" stroke-linejoin="round"></path><path d="M45.8703 54.1387C50.5269 57.4576 53.1044 62.9059 55.5014 68.1042C58.2163 74.0094 59.2301 79.5094 58.0187 85.8973" stroke="black" stroke-width="2" stroke-linecap="round" stroke-linejoin="round"></path><path d="M62.6582 86.4227C63.2338 73.7934 68.1482 59.0607 75.1073 48.5176" stroke="black" stroke-width="2" stroke-linecap="round" stroke-linejoin="round"></path><path d="M47.0731 65.6715C49.2296 61.3181 51.9445 57.2491 55.132 53.5853C55.656 52.9905 56.6011 53.0422 57.0393 53.706C57.4345 54.3008 57.8469 54.8871 58.2765 55.456C58.7662 56.1112 59.737 56.1112 60.2182 55.456C61.2921 53.9991 62.4262 52.5767 63.5946 51.1974C64.1015 50.6112 65.0122 50.6371 65.4848 51.2491C68.8269 55.6284 71.8597 60.2491 74.5575 65.0595" stroke="black" stroke-width="2" stroke-linecap="round" stroke-linejoin="round"></path><path d="M53.1301 86.0957C48.989 93.0871 69.9266 94.225 67.753 87.0612" stroke="black" stroke-width="2" stroke-linecap="round" stroke-linejoin="round"></path><path d="M52.8294 90.0352C50.0114 98.2852 70.8717 98.3627 67.1687 90.4662" stroke="black" stroke-width="2" stroke-linecap="round" stroke-linejoin="round"></path><path d="M53.5597 94.8711C52.039 100.354 66.9368 101.923 66.301 95.7504" stroke="black" stroke-width="2" stroke-linecap="round" stroke-linejoin="round"></path><path d="M29.719 86.959C25.5608 89.4428 21.8586 93.5606 19.2963 96.5564" stroke="black" stroke-width="2" stroke-linecap="round" stroke-linejoin="round"></path><path d="M20.4363 67.9805C12.2068 68.0676 6.82173 70.3226 1.2847 71.0198" stroke="black" stroke-width="2" stroke-linecap="round" stroke-linejoin="round"></path><path d="M23.0311 44.0464C16.4844 38.6649 12.7496 36.7041 4.97604 33.3379" stroke="black" stroke-width="2" stroke-linecap="round" stroke-linejoin="round"></path><path d="M44.2781 27.8596C39.6639 19.613 36.1028 14.2315 32.748 10.7891" stroke="black" stroke-width="2" stroke-linecap="round" stroke-linejoin="round"></path><path d="M69.401 23.0769C70.0307 15.9633 71.2141 8.90416 72.9186 1.96484" stroke="black" stroke-width="2" stroke-linecap="round" stroke-linejoin="round"></path><path d="M91.0497 28.5666C95.9679 23.1633 101.461 17.6184 107.346 11.9863" stroke="black" stroke-width="2" stroke-linecap="round" stroke-linejoin="round"></path><path d="M102.395 47.9033C108.92 45.9533 114.989 44.9402 120.732 44.5371" stroke="black" stroke-width="2" stroke-linecap="round" stroke-linejoin="round"></path><path d="M103.785 69.3652C109.539 70.5635 115.315 73.287 118.637 76.1629" stroke="black" stroke-width="2" stroke-linecap="round" stroke-linejoin="round"></path><path d="M91.0171 87.752C95.6856 90.2575 102.048 95.2577 105.489 100.138" stroke="black" stroke-width="2" stroke-linecap="round" stroke-linejoin="round"></path></svg>