<svg xmlns="http://www.w3.org/2000/svg" width="108" height="98" viewBox="0 0 108 98" fill="none"><g clip-path="url(#clip0_3227_48)"><path d="M16.1 45.4891C16.12 45.6891 16.14 45.8791 16.16 46.0691C18.07 62.4391 29.6 74.7491 46.46 73.7691C64.13 72.7391 80.12 59.4091 79.1 41.8591C78.99 39.9991 78.72 38.1591 78.33 36.3691" stroke="black" stroke-width="2" stroke-linecap="round" stroke-linejoin="round"></path><path d="M78.33 36.3791C74.99 21.2591 61.89 9.12909 46.1 10.0491C32.42 10.8491 21.24 20.0591 17.37 32.3191" stroke="black" stroke-width="2" stroke-linecap="round" stroke-linejoin="round"></path><path d="M31.96 76.2289C34.84 84.2389 41.15 90.5289 50.68 93.0689C67.74 97.6289 87.24 89.9989 92.02 73.0389C95.16 61.8889 92.54 49.8589 85.54 41.6289" stroke="black" stroke-width="2" stroke-linecap="round" stroke-linejoin="round"></path><path d="M71.18 32.5284C54.12 27.9684 36.41 38.0184 31.64 54.9784C30.82 57.8784 30.34 60.7684 30.2 63.5884" stroke="black" stroke-width="2" stroke-linecap="round" stroke-linejoin="round"></path><path d="M82.86 38.8984C82.48 38.5584 82.09 38.2184 81.69 37.8984" stroke="black" stroke-width="2" stroke-linecap="round" stroke-linejoin="round"></path><path d="M49.02 37.959C56.76 43.109 62.28 51.739 63.83 61.379" stroke="black" stroke-width="2" stroke-linecap="round" stroke-linejoin="round"></path><path d="M43.91 93.9796C40.04 95.5596 35.86 96.5296 31.57 96.7896C13.9 97.8196 2.08 84.2496 1.06 66.6996C0.0400017 49.1496 13.53 34.0896 31.2 33.0596C33.9 32.8996 36.52 33.1296 39.03 33.6796C40.26 33.9496 41.47 34.3096 42.65 34.7296" stroke="black" stroke-width="2" stroke-linecap="round" stroke-linejoin="round"></path><path d="M63.22 73.7988C61.32 80.3888 56.94 85.9888 51.18 90.0188" stroke="black" stroke-width="2" stroke-linecap="round" stroke-linejoin="round"></path><path d="M45.75 43.9395C45.31 44.4495 44.87 44.9595 44.46 45.4695" stroke="black" stroke-width="2" stroke-linecap="round" stroke-linejoin="round"></path><path d="M41.8 48.9004C38.52 53.4104 36.12 57.8404 34.29 62.0704" stroke="black" stroke-width="2" stroke-linecap="round" stroke-linejoin="round" stroke-dasharray="4.34 4.34"></path><path d="M33.46 64.0703C33.21 64.7003 32.97 65.3203 32.75 65.9403" stroke="black" stroke-width="2" stroke-linecap="round" stroke-linejoin="round"></path><path d="M51.36 45.0098C50.94 45.5398 50.54 46.0698 50.14 46.5998" stroke="black" stroke-width="2" stroke-linecap="round" stroke-linejoin="round"></path><path d="M48.08 49.4199C44 55.2099 40.98 60.7499 38.71 66.1399" stroke="black" stroke-width="2" stroke-linecap="round" stroke-linejoin="round" stroke-dasharray="3.49 3.49"></path><path d="M38.05 67.75C37.8 68.37 37.57 69 37.34 69.62" stroke="black" stroke-width="2" stroke-linecap="round" stroke-linejoin="round"></path><path d="M54.88 49.5C54.48 50.04 54.09 50.58 53.71 51.12" stroke="black" stroke-width="2" stroke-linecap="round" stroke-linejoin="round"></path><path d="M52.22 53.2109C51.47 54.2709 50.75 55.3309 50.06 56.3909" stroke="black" stroke-width="2" stroke-linecap="round" stroke-linejoin="round" stroke-dasharray="2.56 2.56"></path><path d="M49.36 57.4609C47.74 60.0109 46.29 62.5809 45.07 65.3209" stroke="black" stroke-width="2" stroke-linecap="round" stroke-linejoin="round" stroke-dasharray="2.56 2.56 2.56 2.56"></path><path d="M44.56 66.4805C44.31 67.0905 44.06 67.7105 43.83 68.3405" stroke="black" stroke-width="2" stroke-linecap="round" stroke-linejoin="round"></path><path d="M57.88 53.9297C57.49 54.5197 57.12 55.0797 56.78 55.5997" stroke="black" stroke-width="2" stroke-linecap="round" stroke-linejoin="round"></path><path d="M54.42 59.1992C53.12 61.2392 52.18 62.8592 51.23 64.7892" stroke="black" stroke-width="2" stroke-linecap="round" stroke-linejoin="round" stroke-dasharray="4.29 4.29"></path><path d="M50.33 66.7305C50.08 67.3005 49.81 67.9105 49.53 68.5705" stroke="black" stroke-width="2" stroke-linecap="round" stroke-linejoin="round"></path><path d="M59.31 59.2188C58.02 61.6388 55.33 65.9887 54.18 69.7787" stroke="black" stroke-width="2" stroke-linecap="round" stroke-linejoin="round" stroke-dasharray="4 4"></path><path d="M92.53 1.03906C92.25 2.27906 92.03 3.65906 91.9 4.44906" stroke="black" stroke-width="2" stroke-linecap="round" stroke-linejoin="round"></path><path d="M85.99 5.13867C86.69 5.52867 87.43 5.83867 88.2 6.06867" stroke="black" stroke-width="2" stroke-linecap="round" stroke-linejoin="round"></path><path d="M86.31 11.9696C87.08 11.1096 87.93 10.3096 88.84 9.59961" stroke="black" stroke-width="2" stroke-linecap="round" stroke-linejoin="round"></path><path d="M94.54 7.06883L97 7.04883" stroke="black" stroke-width="2" stroke-linecap="round" stroke-linejoin="round"></path><path d="M93.76 13.0784C93.57 12.2984 93.3 11.5384 92.96 10.8184" stroke="black" stroke-width="2" stroke-linecap="round" stroke-linejoin="round"></path><path d="M104.8 17.6504C104.47 18.6404 104.17 19.7504 103.99 20.3904" stroke="black" stroke-width="2" stroke-linecap="round" stroke-linejoin="round"></path><path d="M98.46 22.691C99.39 22.471 100.33 22.331 101.28 22.291" stroke="black" stroke-width="2" stroke-linecap="round" stroke-linejoin="round"></path><path d="M106.1 25.9809C105.72 25.2909 105.27 24.6109 104.77 23.9609" stroke="black" stroke-width="2" stroke-linecap="round" stroke-linejoin="round"></path></g><defs><clipPath id="clip0_3227_48"><rect width="108" height="98" fill="white"></rect></clipPath></defs></svg>