<svg xmlns="http://www.w3.org/2000/svg" width="116" height="100" viewBox="0 0 116 100" fill="none"><g clip-path="url(#clip0_3227_34)"><path d="M76.46 87.8601C75.49 71.8501 76.28 38.2401 76.28 38.2401C73.64 37.1501 63.4 38.6101 63.4 38.6101C62.82 39.3501 62.66 73.7201 64.13 87.9701" stroke="black" stroke-width="2" stroke-linecap="round" stroke-linejoin="round"></path><path d="M19.03 2.56055C15.72 30.7605 15.34 70.5105 15.27 99.0005" stroke="black" stroke-width="2" stroke-linecap="round" stroke-linejoin="round"></path><path d="M35.91 88.0898C35.4 81.3898 36.34 62.9298 36.34 62.9298C36.34 62.9298 30 62.8298 25.04 64.0198C25 64.0198 23.84 80.7498 24.12 88.4398" stroke="black" stroke-width="2" stroke-linecap="round" stroke-linejoin="round"></path><path d="M95.64 31.6609C91.87 31.4109 83.15 31.9609 83.15 31.9609C83.15 31.9609 82.89 67.7509 83.44 87.9309" stroke="black" stroke-width="2" stroke-linecap="round" stroke-linejoin="round"></path><path d="M96.52 32.5098C96.18 50.8898 96.35 70.1998 96.88 87.6898" stroke="black" stroke-width="2" stroke-linecap="round" stroke-linejoin="round"></path><path d="M57.09 87.9909C56.29 81.1009 56.47 65.8409 56.47 65.8409C55.03 65.8409 48.28 65.5709 44.32 66.6409" stroke="black" stroke-width="2" stroke-linecap="round" stroke-linejoin="round"></path><path d="M44.41 67.75C44.2 74.54 44.32 80.32 44.59 87.97" stroke="black" stroke-width="2" stroke-linecap="round" stroke-linejoin="round"></path><path d="M97.14 4C64.12 41.65 82.83 0.27 58.13 25.94C55.16 28.76 53.16 29.86 51.68 30.02C45.28 30.71 48.69 13.74 25.3 42.61" stroke="black" stroke-width="2" stroke-linecap="round" stroke-linejoin="round"></path><path d="M111.41 89.88C90.54 87.42 21.34 88.51 1 90.97" stroke="black" stroke-width="2" stroke-linecap="round" stroke-linejoin="round"></path><path d="M12.77 14.87C14.09 9.92 17.45 4.99 20.57 1C22.47 7.13 23.19 11.86 24.72 15.12" stroke="black" stroke-width="2" stroke-linecap="round" stroke-linejoin="round"></path><path d="M103.25 81.7402C107.54 84.0302 111.49 86.9802 114.94 90.4602C110.75 93.2702 106.56 96.0902 102.36 98.9002" stroke="black" stroke-width="2" stroke-linecap="round" stroke-linejoin="round"></path><path d="M85.77 6.43047C88.1 4.43047 94.92 2.18047 99.36 1.48047C98.94 6.39047 98.27 11.2805 97.34 16.1205" stroke="black" stroke-width="2" stroke-linecap="round" stroke-linejoin="round"></path></g><defs><clipPath id="clip0_3227_34"><rect width="115.93" height="100" fill="white"></rect></clipPath></defs></svg>